<svg xmlns:dc="http://purl.org/dc/elements/1.1/" xmlns:cc="http://creativecommons.org/ns#" xmlns:rdf="http://www.w3.org/1999/02/22-rdf-syntax-ns#" xmlns:svg="http://www.w3.org/2000/svg" xmlns="http://www.w3.org/2000/svg" viewBox="0 0 180 180"><metadata><rdf:RDF><cc:Work><dc:format>image/svg+xml</dc:format><dc:type rdf:resource="http://purl.org/dc/dcmitype/StillImage"/><dc:title>Bottts</dc:title><dc:creator><cc:Agent><dc:title>Pablo Stanley</dc:title></cc:Agent></dc:creator><dc:source>https://bottts.com/</dc:source><cc:license rdf:resource="https://bottts.com/"/><dc:contributor><cc:Agent><dc:title>Florian Körner</dc:title></cc:Agent></dc:contributor></cc:Work></rdf:RDF></metadata><mask id="avatarsRadiusMask"><rect width="180" height="180" rx="0" ry="0" x="0" y="0" fill="#fff"/></mask><g mask="url(#avatarsRadiusMask)"><g transform="translate(0, 66)"><g opacity="0.9"><path id="Cable" d="M38 12C35.046 23.6966 18.0959 18.6663 14.6313 30.009C11.1668 41.3518 22.6565 50 32.1552 50" stroke="#2A3544" stroke-width="6"/><path id="Cable_2" d="M150 55C158.394 58.4864 170.102 47.4063 166 38.5C161.898 29.5936 150 31.8056 150 19.195" stroke="#2A3544" stroke-width="4"/></g><path fill-rule="evenodd" clip-rule="evenodd" d="M138 6C136.895 6 136 6.89543 136 8V22C136 23.1046 136.895 24 138 24H157C158.105 24 159 23.1046 159 22V8C159 6.89543 158.105 6 157 6H138ZM21 37C21 35.8954 21.8954 35 23 35H35C36.1046 35 37 35.8954 37 37V55C37 56.1046 36.1046 57 35 57H23C21.8954 57 21 56.1046 21 55V37ZM136 44C136 42.8954 136.895 42 138 42H157C158.105 42 159 42.8954 159 44V62C159 63.1046 158.105 64 157 64H138C136.895 64 136 63.1046 136 62V44Z" fill="#273951"/><mask id="sidesCables01Mask0" mask-type="alpha" maskUnits="userSpaceOnUse" x="21" y="6" width="138" height="58"><path fill-rule="evenodd" clip-rule="evenodd" d="M138 6C136.895 6 136 6.89543 136 8V22C136 23.1046 136.895 24 138 24H157C158.105 24 159 23.1046 159 22V8C159 6.89543 158.105 6 157 6H138ZM21 37C21 35.8954 21.8954 35 23 35H35C36.1046 35 37 35.8954 37 37V55C37 56.1046 36.1046 57 35 57H23C21.8954 57 21 56.1046 21 55V37ZM136 44C136 42.8954 136.895 42 138 42H157C158.105 42 159 42.8954 159 44V62C159 63.1046 158.105 64 157 64H138C136.895 64 136 63.1046 136 62V44Z" fill="white"/></mask><g mask="url(#sidesCables01Mask0)"><rect width="180" height="76" fill="#FFCA28"/></g></g><g transform="translate(41, 0)"><path fill-rule="evenodd" clip-rule="evenodd" d="M53.5683 39L55.5437 34.3851L49.3528 23.7098L52.2483 13.0836L49.3539 12.2949L46.1288 24.1305L52.179 34.5631L50.0881 39H38V52H62V39H53.5683Z" fill="#E6E6E6"/><mask id="topAntennaCrookedMask0" mask-type="alpha" maskUnits="userSpaceOnUse" x="38" y="12" width="24" height="40"><path fill-rule="evenodd" clip-rule="evenodd" d="M53.5683 39L55.5437 34.3851L49.3528 23.7098L52.2483 13.0836L49.3539 12.2949L46.1288 24.1305L52.179 34.5631L50.0881 39H38V52H62V39H53.5683Z" fill="white"/></mask><g mask="url(#topAntennaCrookedMask0)"><rect width="100" height="52" fill="#FFCA28"/><rect x="38" y="39" width="24" height="13" fill="white" fill-opacity="0.2"/></g><path fill-rule="evenodd" clip-rule="evenodd" d="M50 16C54.4183 16 58 12.4183 58 8C58 3.58172 54.4183 0 50 0C45.5817 0 42 3.58172 42 8C42 12.4183 45.5817 16 50 16Z" fill="#FFE65C"/><path fill-rule="evenodd" clip-rule="evenodd" d="M53 8C54.6569 8 56 6.65685 56 5C56 3.34315 54.6569 2 53 2C51.3431 2 50 3.34315 50 5C50 6.65685 51.3431 8 53 8Z" fill="white"/></g><g transform="translate(25, 44)"><rect width="130" height="120" rx="18" fill="#0076DE"/><mask id="faceSquare01Mask0" mask-type="alpha" maskUnits="userSpaceOnUse" x="0" y="0" width="130" height="120"><rect width="130" height="120" rx="18" fill="white"/></mask><g mask="url(#faceSquare01Mask0)"><rect x="-2" y="-2" width="134" height="124" fill="#FFB300"/> undefined </g></g><g transform="translate(52, 124)"><rect x="12" y="12" width="4" height="8" rx="2" fill="black" fill-opacity="0.6"/><rect x="36" y="12" width="4" height="8" rx="2" fill="black" fill-opacity="0.6"/><rect x="24" y="12" width="4" height="8" rx="2" fill="black" fill-opacity="0.6"/><rect x="48" y="12" width="4" height="8" rx="2" fill="black" fill-opacity="0.6"/><rect x="60" y="12" width="4" height="8" rx="2" fill="black" fill-opacity="0.6"/></g><g transform="translate(38, 76)"><path fill-rule="evenodd" clip-rule="evenodd" d="M25 27.2L30.5 32.7C31 33.1 31.7 33.1 32.1 32.7L33.7 31.1C34.1 30.6 34.1 29.9 33.7 29.5L28.2 24L33.7 18.5C34.1 18 34.1 17.3 33.7 16.9L32.1 15.3C31.6 14.9 30.9 14.9 30.5 15.3L25 20.8L19.5 15.3C19 14.9 18.3 14.9 17.9 15.3L16.3 16.9C15.9 17.3 15.9 18 16.3 18.5L21.8 24L16.3 29.5C15.9 30 15.9 30.7 16.3 31.1L17.9 32.7C18.4 33.1 19.1 33.1 19.5 32.7L25 27.2Z" fill="black" fill-opacity="0.8"/><path fill-rule="evenodd" clip-rule="evenodd" d="M79 27.2L84.5 32.7C85 33.1 85.7 33.1 86.1 32.7L87.7 31.1C88.1 30.6 88.1 29.9 87.7 29.5L82.2 24L87.7 18.5C88.1 18 88.1 17.3 87.7 16.9L86.1 15.3C85.6 14.9 84.9 14.9 84.5 15.3L79 20.8L73.5 15.3C73 14.9 72.3 14.9 71.9 15.3L70.3 16.9C69.9 17.3 69.9 18 70.3 18.5L75.8 24L70.3 29.5C69.9 30 69.9 30.7 70.3 31.1L71.9 32.7C72.4 33.1 73.1 33.1 73.5 32.7L79 27.2Z" fill="black" fill-opacity="0.8"/></g></g></svg>